<mxfile host="app.diagrams.net" modified="2020-10-05T19:38:52.020Z" agent="5.0 (Windows NT 10.0; Win64; x64) AppleWebKit/537.36 (KHTML, like Gecko) Chrome/85.0.4183.121 Safari/537.36" etag="2cjx1t2HtqXAtO_q4uKK" version="13.7.7" type="github">
  <diagram id="C5RBs43oDa-KdzZeNtuy" name="Page-1">
    <mxGraphModel dx="1550" dy="713" grid="1" gridSize="10" guides="1" tooltips="1" connect="1" arrows="1" fold="1" page="1" pageScale="1" pageWidth="827" pageHeight="1169" math="0" shadow="0">
      <root>
        <mxCell id="WIyWlLk6GJQsqaUBKTNV-0" />
        <mxCell id="WIyWlLk6GJQsqaUBKTNV-1" parent="WIyWlLk6GJQsqaUBKTNV-0" />
        <mxCell id="WIyWlLk6GJQsqaUBKTNV-2" value="" style="rounded=0;html=1;jettySize=auto;orthogonalLoop=1;fontSize=11;endArrow=block;endFill=0;endSize=8;strokeWidth=1;shadow=0;labelBackgroundColor=none;edgeStyle=orthogonalEdgeStyle;" parent="WIyWlLk6GJQsqaUBKTNV-1" source="WIyWlLk6GJQsqaUBKTNV-3" edge="1">
          <mxGeometry relative="1" as="geometry">
            <mxPoint x="250" y="170" as="targetPoint" />
          </mxGeometry>
        </mxCell>
        <mxCell id="WIyWlLk6GJQsqaUBKTNV-3" value="Gather all resources of all PUBLISHED package of type GEOGRAPHIC with a non-null object_name" style="rounded=1;whiteSpace=wrap;html=1;fontSize=12;glass=0;strokeWidth=1;shadow=0;" parent="WIyWlLk6GJQsqaUBKTNV-1" vertex="1">
          <mxGeometry x="150" y="30" width="200" height="90" as="geometry" />
        </mxCell>
        <mxCell id="u6owHNLzH2omVH_PoyqF-5" style="edgeStyle=orthogonalEdgeStyle;rounded=0;orthogonalLoop=1;jettySize=auto;html=1;exitX=0.5;exitY=1;exitDx=0;exitDy=0;endArrow=block;endFill=0;" edge="1" parent="WIyWlLk6GJQsqaUBKTNV-1" source="u6owHNLzH2omVH_PoyqF-0" target="u6owHNLzH2omVH_PoyqF-4">
          <mxGeometry relative="1" as="geometry" />
        </mxCell>
        <mxCell id="u6owHNLzH2omVH_PoyqF-0" value="Filter on the resources having BC Geographic Warehouse as the resource_storage_location" style="rounded=1;whiteSpace=wrap;html=1;fontSize=12;glass=0;strokeWidth=1;shadow=0;" vertex="1" parent="WIyWlLk6GJQsqaUBKTNV-1">
          <mxGeometry x="150" y="170" width="200" height="90" as="geometry" />
        </mxCell>
        <mxCell id="u6owHNLzH2omVH_PoyqF-3" style="edgeStyle=orthogonalEdgeStyle;rounded=0;orthogonalLoop=1;jettySize=auto;html=1;exitX=0.5;exitY=1;exitDx=0;exitDy=0;entryX=0.5;entryY=0;entryDx=0;entryDy=0;endArrow=block;endFill=0;" edge="1" parent="WIyWlLk6GJQsqaUBKTNV-1" source="u6owHNLzH2omVH_PoyqF-1" target="u6owHNLzH2omVH_PoyqF-2">
          <mxGeometry relative="1" as="geometry" />
        </mxCell>
        <mxCell id="u6owHNLzH2omVH_PoyqF-1" value="Get FME last refresh dates and objects for&amp;nbsp; tables that have refreshed since EDRP_REPL_REFRESH_DATES_ROLLUP was last refreshed" style="rounded=1;whiteSpace=wrap;html=1;fontSize=12;glass=0;strokeWidth=1;shadow=0;" vertex="1" parent="WIyWlLk6GJQsqaUBKTNV-1">
          <mxGeometry x="440" y="30" width="260" height="90" as="geometry" />
        </mxCell>
        <mxCell id="u6owHNLzH2omVH_PoyqF-6" style="edgeStyle=orthogonalEdgeStyle;rounded=0;orthogonalLoop=1;jettySize=auto;html=1;exitX=0.5;exitY=1;exitDx=0;exitDy=0;endArrow=block;endFill=0;" edge="1" parent="WIyWlLk6GJQsqaUBKTNV-1" source="u6owHNLzH2omVH_PoyqF-2">
          <mxGeometry relative="1" as="geometry">
            <mxPoint x="390" y="390" as="targetPoint" />
          </mxGeometry>
        </mxCell>
        <mxCell id="u6owHNLzH2omVH_PoyqF-2" value="Get the objects (views) that are dependent on these tables, and the views that are dependent on those views&lt;br&gt;(2 levels of dependency)" style="rounded=1;whiteSpace=wrap;html=1;fontSize=12;glass=0;strokeWidth=1;shadow=0;" vertex="1" parent="WIyWlLk6GJQsqaUBKTNV-1">
          <mxGeometry x="440" y="170" width="260" height="90" as="geometry" />
        </mxCell>
        <mxCell id="u6owHNLzH2omVH_PoyqF-8" style="edgeStyle=orthogonalEdgeStyle;rounded=0;orthogonalLoop=1;jettySize=auto;html=1;exitX=0.5;exitY=1;exitDx=0;exitDy=0;entryX=0.5;entryY=0;entryDx=0;entryDy=0;endArrow=block;endFill=0;" edge="1" parent="WIyWlLk6GJQsqaUBKTNV-1" source="u6owHNLzH2omVH_PoyqF-4" target="u6owHNLzH2omVH_PoyqF-7">
          <mxGeometry relative="1" as="geometry" />
        </mxCell>
        <mxCell id="u6owHNLzH2omVH_PoyqF-4" value="Filter on matches" style="rounded=1;whiteSpace=wrap;html=1;fontSize=12;glass=0;strokeWidth=1;shadow=0;" vertex="1" parent="WIyWlLk6GJQsqaUBKTNV-1">
          <mxGeometry x="260" y="390" width="260" height="90" as="geometry" />
        </mxCell>
        <mxCell id="u6owHNLzH2omVH_PoyqF-7" value="Update resource &lt;b&gt;last_modified&lt;/b&gt;" style="rounded=1;whiteSpace=wrap;html=1;fontSize=12;glass=0;strokeWidth=1;shadow=0;" vertex="1" parent="WIyWlLk6GJQsqaUBKTNV-1">
          <mxGeometry x="260" y="530" width="260" height="90" as="geometry" />
        </mxCell>
      </root>
    </mxGraphModel>
  </diagram>
</mxfile>
